<svg width="60" height="60" viewBox="0 0 60 60" fill="none" xmlns="http://www.w3.org/2000/svg">
<path d="M30 60C21.9867 60 14.453 56.8794 8.78685 51.2132C3.12071 45.5469 0 38.0133 0 30C0 21.9867 3.12059 14.453 8.78685 8.78685C14.4531 3.12071 21.9867 0 30 0C35.3431 0 40.5893 1.42242 45.1714 4.11362C49.6183 6.72535 53.3413 10.4609 55.9378 14.9164C56.1855 15.3416 56.0418 15.8872 55.6166 16.1349C55.1916 16.3825 54.6459 16.239 54.398 15.8136C51.9552 11.6218 48.4527 8.10737 44.2689 5.65022C39.9602 3.11976 35.0261 1.78218 30 1.78218C22.4628 1.78218 15.3766 4.71731 10.047 10.047C4.71731 15.3766 1.78218 22.4628 1.78218 30C1.78218 37.5372 4.71731 44.6234 10.047 49.953C15.3766 55.2827 22.4628 58.2178 30 58.2178C37.5372 58.2178 44.6234 55.2827 49.953 49.953C55.2827 44.6234 58.2178 37.5372 58.2178 30C58.2178 26.2069 57.4782 22.5265 56.0194 19.0611C55.8285 18.6076 56.0414 18.0851 56.495 17.8941C56.9484 17.7031 57.4712 17.9162 57.662 18.3697C59.2133 22.0552 60 25.9681 60 30C60 38.0133 56.8794 45.547 51.2132 51.2132C45.5469 56.8793 38.0133 60 30 60Z" fill="black"/>
<path d="M30 53.5103C17.0364 53.5103 6.48975 42.9636 6.48975 30C6.48975 17.0364 17.0364 6.48975 30 6.48975C42.9637 6.48975 53.5104 17.0364 53.5104 30C53.5104 42.9636 42.9637 53.5103 30 53.5103ZM30 8.27192C18.0191 8.27192 8.27192 18.0191 8.27192 30C8.27192 41.9809 18.0191 51.7281 30 51.7281C41.981 51.7281 51.7282 41.9809 51.7282 30C51.7282 18.0191 41.981 8.27192 30 8.27192Z" fill="black"/>
<path d="M22.2913 48.0597C20.4897 48.0597 19.024 46.594 19.024 44.7924V43.2552H18.2966C16.495 43.2552 15.0293 41.7895 15.0293 39.9878C15.0293 38.1862 16.495 36.7205 18.2966 36.7205H19.024V35.7697H18.2966C16.495 35.7697 15.0293 34.304 15.0293 32.5023C15.0293 30.7007 16.495 29.235 18.2966 29.235H19.024V26.4169C19.024 25.9248 19.423 25.5258 19.9151 25.5258C20.4072 25.5258 20.8062 25.9248 20.8062 26.4169V30.1261C20.8062 30.6182 20.4072 31.0172 19.9151 31.0172H18.2966C17.4777 31.0172 16.8115 31.6834 16.8115 32.5023C16.8115 33.3213 17.4777 33.9875 18.2966 33.9875H19.9151C20.4072 33.9875 20.8062 34.3865 20.8062 34.8786V37.6116C20.8062 38.1037 20.4072 38.5027 19.9151 38.5027H18.2966C17.4777 38.5027 16.8115 39.1689 16.8115 39.9878C16.8115 40.8068 17.4777 41.473 18.2966 41.473H19.9151C20.4072 41.473 20.8062 41.872 20.8062 42.3641V44.7924C20.8062 45.6113 21.4723 46.2775 22.2913 46.2775C23.1103 46.2775 23.7765 45.6113 23.7765 44.7924V42.3641C23.7765 41.872 24.1754 41.473 24.6676 41.473H32.979C33.798 41.473 34.4642 40.8068 34.4642 39.9878C34.4642 39.1689 33.798 38.5027 32.979 38.5027H24.6676C24.1754 38.5027 23.7765 38.1037 23.7765 37.6116V34.8786C23.7765 34.3865 24.1754 33.9875 24.6676 33.9875H34.1359C39.565 33.9875 43.982 29.5705 43.982 24.1414C43.982 18.7123 39.565 14.2954 34.1359 14.2954H22.2913C21.4723 14.2954 20.8062 14.9615 20.8062 15.7805V22.8523C20.8062 23.3444 20.4072 23.7434 19.9151 23.7434C19.423 23.7434 19.024 23.3444 19.024 22.8523V15.7805C19.024 13.9788 20.4897 12.5132 22.2913 12.5132H34.1359C40.5477 12.5132 45.7642 17.7296 45.7642 24.1414C45.7642 30.5532 40.5477 35.7697 34.1359 35.7697H25.5586V36.7205H32.979C34.7807 36.7205 36.2464 38.1862 36.2464 39.9878C36.2464 41.7895 34.7807 43.2552 32.979 43.2552H25.5586V44.7924C25.5586 46.594 24.093 48.0597 22.2913 48.0597ZM34.1359 31.0172H24.6676C24.1754 31.0172 23.7765 30.6182 23.7765 30.1261V18.1567C23.7765 17.6646 24.1754 17.2657 24.6676 17.2657H34.1359C37.9272 17.2657 41.0117 20.3501 41.0117 24.1414C41.0117 27.9327 37.9272 31.0172 34.1359 31.0172ZM25.5586 29.235H34.1359C36.9445 29.235 39.2295 26.9501 39.2295 24.1414C39.2295 21.3327 36.9445 19.0478 34.1359 19.0478H25.5586V29.235Z" fill="black"/>
</svg>
