<svg width="152" height="56" viewBox="0 0 152 56" fill="none" xmlns="http://www.w3.org/2000/svg">
<path d="M9.264 16.84H16.608L22.044 46H16.104L15.132 39.844H10.848L9.84 46H3.756L9.264 16.84ZM14.52 35.992L12.972 24.616L11.424 35.992H14.52ZM24.6641 25.192H30.5321V33.4H31.3961L34.5641 25.192H40.8641L36.7601 35.02L40.9721 46H34.7801L31.3961 36.784H30.5321V46H24.6641V25.192ZM45.6412 29.152H41.8612V25.192H55.2532V29.152H51.4732V46H45.6412V29.152ZM57.711 25.192H62.355V36.316L67.791 25.192H72.363V46H67.611V34.984L62.319 46H57.711V25.192ZM75.9923 25.192H83.3723C85.3643 25.192 86.9003 25.408 87.9803 25.84C89.0603 26.248 89.7923 26.824 90.1763 27.568C90.5603 28.312 90.7523 29.248 90.7523 30.376C90.7523 31.672 90.4763 32.656 89.9243 33.328C89.3723 33.976 88.5803 34.444 87.5483 34.732C88.9643 35.092 89.9363 35.692 90.4643 36.532C90.9923 37.372 91.2563 38.524 91.2563 39.988C91.2563 41.38 90.9923 42.52 90.4643 43.408C89.9603 44.272 89.1083 44.92 87.9083 45.352C86.7083 45.784 85.0883 46 83.0483 46H75.9923V25.192ZM83.3003 33.4C83.9483 33.4 84.4163 33.196 84.7043 32.788C84.9923 32.356 85.1363 31.72 85.1363 30.88C85.1363 30.016 84.9803 29.356 84.6683 28.9C84.3563 28.444 83.7563 28.216 82.8683 28.216H81.8243V33.4H83.3003ZM82.7963 42.76C83.4443 42.76 83.9483 42.712 84.3083 42.616C84.6923 42.496 84.9923 42.22 85.2083 41.788C85.4483 41.356 85.5683 40.696 85.5683 39.808C85.5683 38.8 85.4603 38.068 85.2443 37.612C85.0283 37.132 84.7403 36.844 84.3803 36.748C84.0203 36.628 83.5043 36.568 82.8323 36.568H81.8243V42.76H82.7963ZM106.331 21.628H101.939V16.84H117.167V21.628H112.811V46H106.331V21.628ZM119.986 47.98C121.138 47.98 121.978 47.848 122.506 47.584C123.058 47.344 123.334 46.888 123.334 46.216C123.334 45.616 123.082 44.452 122.578 42.724L117.682 25.192H123.19L125.818 37.216L127.798 25.192H133.342L128.554 46.504C128.098 48.544 127.27 49.972 126.07 50.788C124.87 51.628 123.286 52.048 121.318 52.048H119.986V47.98ZM135.547 25.192H141.415V26.704C142.087 26.08 142.819 25.612 143.611 25.3C144.403 24.988 145.171 24.832 145.915 24.832C147.427 24.832 148.543 25.396 149.263 26.524C150.007 27.652 150.379 29.128 150.379 30.952V39.916C150.379 41.908 149.983 43.48 149.191 44.632C148.399 45.784 147.283 46.36 145.843 46.36C144.379 46.36 142.903 45.712 141.415 44.416V52.84H135.547V25.192ZM142.963 42.58C143.491 42.58 143.875 42.364 144.115 41.932C144.379 41.5 144.511 40.936 144.511 40.24V30.52C144.511 29.896 144.391 29.38 144.151 28.972C143.911 28.564 143.551 28.36 143.071 28.36C142.495 28.36 141.943 28.6 141.415 29.08V42.04C141.967 42.4 142.483 42.58 142.963 42.58Z" fill="#ADFF00"/>
<path d="M6.264 13.84H13.608L19.044 43H13.104L12.132 36.844H7.848L6.84 43H0.756L6.264 13.84ZM11.52 32.992L9.972 21.616L8.424 32.992H11.52ZM21.6641 22.192H27.5321V30.4H28.3961L31.5641 22.192H37.8641L33.7601 32.02L37.9721 43H31.7801L28.3961 33.784H27.5321V43H21.6641V22.192ZM42.6412 26.152H38.8612V22.192H52.2532V26.152H48.4732V43H42.6412V26.152ZM54.711 22.192H59.355V33.316L64.791 22.192H69.363V43H64.611V31.984L59.319 43H54.711V22.192ZM72.9923 22.192H80.3723C82.3643 22.192 83.9003 22.408 84.9803 22.84C86.0603 23.248 86.7923 23.824 87.1763 24.568C87.5603 25.312 87.7523 26.248 87.7523 27.376C87.7523 28.672 87.4763 29.656 86.9243 30.328C86.3723 30.976 85.5803 31.444 84.5483 31.732C85.9643 32.092 86.9363 32.692 87.4643 33.532C87.9923 34.372 88.2563 35.524 88.2563 36.988C88.2563 38.38 87.9923 39.52 87.4643 40.408C86.9603 41.272 86.1083 41.92 84.9083 42.352C83.7083 42.784 82.0883 43 80.0483 43H72.9923V22.192ZM80.3003 30.4C80.9483 30.4 81.4163 30.196 81.7043 29.788C81.9923 29.356 82.1363 28.72 82.1363 27.88C82.1363 27.016 81.9803 26.356 81.6683 25.9C81.3563 25.444 80.7563 25.216 79.8683 25.216H78.8243V30.4H80.3003ZM79.7963 39.76C80.4443 39.76 80.9483 39.712 81.3083 39.616C81.6923 39.496 81.9923 39.22 82.2083 38.788C82.4483 38.356 82.5683 37.696 82.5683 36.808C82.5683 35.8 82.4603 35.068 82.2443 34.612C82.0283 34.132 81.7403 33.844 81.3803 33.748C81.0203 33.628 80.5043 33.568 79.8323 33.568H78.8243V39.76H79.7963ZM103.331 18.628H98.939V13.84H114.167V18.628H109.811V43H103.331V18.628ZM116.986 44.98C118.138 44.98 118.978 44.848 119.506 44.584C120.058 44.344 120.334 43.888 120.334 43.216C120.334 42.616 120.082 41.452 119.578 39.724L114.682 22.192H120.19L122.818 34.216L124.798 22.192H130.342L125.554 43.504C125.098 45.544 124.27 46.972 123.07 47.788C121.87 48.628 120.286 49.048 118.318 49.048H116.986V44.98ZM132.547 22.192H138.415V23.704C139.087 23.08 139.819 22.612 140.611 22.3C141.403 21.988 142.171 21.832 142.915 21.832C144.427 21.832 145.543 22.396 146.263 23.524C147.007 24.652 147.379 26.128 147.379 27.952V36.916C147.379 38.908 146.983 40.48 146.191 41.632C145.399 42.784 144.283 43.36 142.843 43.36C141.379 43.36 139.903 42.712 138.415 41.416V49.84H132.547V22.192ZM139.963 39.58C140.491 39.58 140.875 39.364 141.115 38.932C141.379 38.5 141.511 37.936 141.511 37.24V27.52C141.511 26.896 141.391 26.38 141.151 25.972C140.911 25.564 140.551 25.36 140.071 25.36C139.495 25.36 138.943 25.6 138.415 26.08V39.04C138.967 39.4 139.483 39.58 139.963 39.58Z" fill="#1D8FE1"/>
</svg>
