<svg width="169" height="169" viewBox="0 0 169 169" fill="none" xmlns="http://www.w3.org/2000/svg">
<path d="M84.5 0C61.8474 0 41.2937 9.01891 26.1037 23.5868C25.058 24.1946 24.1865 25.0613 23.5731 26.1037C9.00894 41.2931 0 61.8507 0 84.5C0 131.085 37.9153 169 84.5 169C107.104 169 127.619 160.022 142.8 145.509C143.929 144.876 144.862 143.943 145.496 142.814C160.016 127.632 169 107.111 169 84.5C169 37.9153 131.085 0 84.5 0ZM84.5 14.0833C123.473 14.0833 154.917 45.5265 154.917 84.5C154.917 101.445 148.968 116.955 139.045 129.088L39.9119 29.9546C52.0445 20.0323 67.5551 14.0833 84.5 14.0833ZM29.9546 39.9119L129.088 139.045C116.955 148.968 101.445 154.917 84.5 154.917C45.5265 154.917 14.0833 123.473 14.0833 84.5C14.0833 67.5551 20.0323 52.0445 29.9546 39.9119Z" fill="#FF0000"/>
</svg>
