<svg width="60" height="60" viewBox="0 0 60 60" fill="none" xmlns="http://www.w3.org/2000/svg">
<path d="M57.217 26.6125C55.6836 14.1718 45.825 4.3132 33.3875 2.78273C33.0744 1.19848 31.6748 0 30 0C28.3252 0 26.9255 1.19859 26.6125 2.78297C14.1716 4.31637 4.31297 14.175 2.78273 26.6125C1.19848 26.9256 0 28.3253 0 30C0 31.6747 1.19848 33.0744 2.78273 33.3875C4.3132 45.825 14.1718 55.6836 26.6123 57.217C26.9255 58.8014 28.3252 60 30 60C31.6748 60 33.0745 58.8014 33.3875 57.217C45.8249 55.6835 55.6835 45.825 57.217 33.3877C58.8014 33.0745 60 31.6748 60 30C60 28.3252 58.8014 26.9255 57.217 26.6125ZM30 1.75781C30.935 1.75781 31.6957 2.51848 31.6957 3.45352C31.6957 4.38668 30.935 5.14582 30 5.14582C29.065 5.14582 28.3043 4.38656 28.3043 3.45352C28.3043 2.51848 29.065 1.75781 30 1.75781ZM1.75781 30C1.75781 29.065 2.51848 28.3043 3.45352 28.3043C4.38668 28.3043 5.14582 29.065 5.14582 30C5.14582 30.935 4.38656 31.6957 3.45352 31.6957C2.51848 31.6957 1.75781 30.935 1.75781 30ZM30 58.2422C29.065 58.2422 28.3043 57.4815 28.3043 56.5465C28.3043 55.6114 29.065 54.8508 30 54.8508C30.935 54.8508 31.6957 55.6114 31.6957 56.5465C31.6957 57.4815 30.935 58.2422 30 58.2422ZM33.277 55.459C32.8202 54.0861 31.5244 53.0931 30 53.0931C28.4756 53.0931 27.1798 54.0861 26.723 55.459C15.165 53.9861 6.01066 44.8318 4.54078 33.2768C5.91188 32.8198 6.90363 31.524 6.90363 30.0001C6.90363 28.4762 5.91188 27.1805 4.54078 26.7233C6.01043 15.1682 15.1649 6.01383 26.7233 4.54102C27.1805 5.91199 28.4761 6.90363 30 6.90363C31.524 6.90363 32.8196 5.91188 33.2768 4.54078C44.8317 6.01055 53.9861 15.1649 55.459 26.723C54.0861 27.1798 53.0931 28.4757 53.0931 30C53.0931 31.5243 54.0861 32.8201 55.4589 33.277C53.9859 44.8318 44.8317 53.9859 33.277 55.459ZM56.5465 31.6957C55.6114 31.6957 54.8508 30.935 54.8508 30C54.8508 29.065 55.6114 28.3043 56.5465 28.3043C57.4815 28.3043 58.2422 29.065 58.2422 30C58.2422 30.935 57.4815 31.6957 56.5465 31.6957Z" fill="black"/>
<path d="M45.6332 32.3579C45.4755 32.3158 45.3188 32.274 45.1653 32.2321C44.9332 32.1684 44.7613 31.8706 44.6315 31.5698C47.0181 29.9588 48.798 27.1837 48.798 24.7645V22.5652C48.798 19.8536 47.9318 17.5525 46.2929 15.9106C44.8283 14.4433 42.8567 13.6157 40.7415 13.5806C40.7316 13.5806 40.7219 13.5806 40.7123 13.5806C37.567 13.6327 34.1124 15.5641 33.0136 19.7316C32.238 19.4744 31.4172 19.3319 30.5727 19.3178C30.5628 19.3177 30.5532 19.3177 30.5434 19.3178C29.6986 19.3319 28.8775 19.4745 28.1018 19.7319C27.0003 15.5641 23.545 13.6326 20.4004 13.5806C20.3908 13.5806 20.3811 13.5806 20.3713 13.5806C18.2561 13.6157 16.2853 14.4433 14.8214 15.9108C13.1838 17.5524 12.3182 19.8535 12.3182 22.5652V24.7645C12.3182 27.1832 14.0967 29.9588 16.4823 31.5702C16.353 31.8706 16.1814 32.168 15.9488 32.2317C15.7933 32.2741 15.6362 32.316 15.4782 32.3583C12.9416 33.0363 9.46777 33.9645 9.46777 38.3484V40.2453C9.46777 41.0486 10.1213 41.7023 10.9256 41.7023L17.6594 41.6956C18.1448 41.6951 18.5379 41.3013 18.5374 40.8159C18.5369 40.3307 18.1436 39.9378 17.6585 39.9378C17.6582 39.9378 17.6579 39.9378 17.6575 39.9378L11.2255 39.9441V38.3484C11.2255 35.8932 12.5639 35.0568 14.8307 34.3672L18.9518 36.7816C19.9813 37.4439 20.7896 37.4442 21.823 36.7817L24.4247 35.2547C25.0602 36.0378 25.8195 36.7431 26.6536 37.3065C26.5238 37.6074 26.3522 37.9052 26.1212 37.9687C25.966 38.011 25.8092 38.0528 25.6515 38.095C23.1131 38.7726 19.6366 39.7007 19.6366 44.0855V45.9824C19.6366 46.7857 20.2917 47.4394 21.0969 47.4394H28.4751C28.9606 47.4394 29.354 47.0459 29.354 46.5605C29.354 46.0751 28.9606 45.6816 28.4751 45.6816H21.3944V44.0856C21.3944 41.6302 22.7343 40.7938 25.0026 40.1044L29.1204 42.5187C29.6362 42.8507 30.0963 43.0167 30.5564 43.0167C31.0164 43.0167 31.4765 42.8506 31.9923 42.5187L36.1122 40.105C38.3792 40.7943 39.7183 41.6309 39.7183 44.0856V45.6816H32.6941C32.2086 45.6816 31.8152 46.0751 31.8152 46.5605C31.8152 47.0459 32.2086 47.4394 32.6941 47.4394H40.0193C40.8226 47.4394 41.4763 46.7859 41.4763 45.9824V44.0855C41.4763 39.7007 37.9998 38.7727 35.4614 38.095C35.3036 38.0529 35.1468 38.011 34.9933 37.9692C34.7619 37.9056 34.5907 37.6075 34.4616 37.3067C35.2954 36.7435 36.0547 36.0384 36.6902 35.2556L39.2927 36.7813C39.8084 37.1133 40.2686 37.2793 40.7286 37.2793C41.1887 37.2793 41.6486 37.1133 42.1644 36.7816L46.2866 34.3683C48.5523 35.0575 49.8907 35.8943 49.8907 38.3483V39.9443H43.4612C42.9757 39.9443 42.5823 40.3379 42.5823 40.8233C42.5823 41.3086 42.9757 41.7022 43.4612 41.7022H50.1882C50.9934 41.7022 51.6485 41.0486 51.6485 40.2452V38.3483C51.6483 33.9636 48.1716 33.0354 45.6332 32.3579ZM47.0402 24.7645C47.0402 27.0585 44.7887 29.9055 42.2226 30.8567C41.1185 31.2651 40.3358 31.2652 39.2335 30.8575C39.0308 30.7819 38.8269 30.6917 38.6234 30.5906C38.6239 30.561 38.6259 30.5311 38.6259 30.5016V28.3024C38.6259 25.8493 37.9147 23.7338 36.566 22.1364C36.64 22.0638 36.7089 21.9935 36.7739 21.9272C37.2269 21.4649 37.3087 21.3816 37.8045 21.5097C38.1661 21.6024 38.4741 21.6842 38.7413 21.7552C39.6639 22.0002 40.1721 22.1353 40.7268 22.1353C41.2847 22.1353 41.7939 22 42.7188 21.7544C42.9853 21.6836 43.2925 21.602 43.6539 21.5094C44.1472 21.3822 44.2284 21.4654 44.6818 21.9278C45.1343 22.3893 45.7823 23.0463 47.0401 23.3246V24.7645H47.0402ZM40.7268 15.3385C43.5355 15.3918 46.5366 17.3408 46.9834 21.4803C46.5223 21.2942 46.2431 21.0092 45.9369 20.6971C45.4109 20.1608 44.6904 19.4262 43.216 19.8071C42.8503 19.9008 42.5383 19.9837 42.2676 20.0556C41.4603 20.27 41.0552 20.3776 40.7268 20.3776C40.4015 20.3776 39.9975 20.2702 39.1925 20.0565C38.9211 19.9844 38.6082 19.9013 38.2422 19.8074C36.7643 19.426 36.0441 20.1608 35.5184 20.697C35.4419 20.7751 35.3662 20.8505 35.2893 20.9244C35.0798 20.766 34.8632 20.6184 34.6399 20.4824C35.4274 16.9993 38.2037 15.3864 40.7268 15.3385ZM30.5581 21.0758C33.3652 21.129 36.3649 23.078 36.8114 27.2176C36.3502 27.0315 36.0709 26.7465 35.7648 26.4344C35.3401 26.0013 34.7888 25.439 33.8158 25.439C33.5839 25.439 33.3277 25.471 33.0438 25.5442C32.6771 25.6383 32.3645 25.7213 32.0933 25.7934C31.2879 26.0072 30.8836 26.1147 30.558 26.1147C30.2288 26.1147 29.8229 26.0067 29.0137 25.7915C28.7446 25.7199 28.435 25.6376 28.0734 25.5446C26.5954 25.1635 25.8751 25.8984 25.3494 26.4351C25.044 26.7468 24.7651 27.0315 24.3049 27.2174C24.7514 23.0778 27.751 21.129 30.5581 21.0758ZM20.386 15.3385C22.9086 15.3863 25.6855 16.9993 26.4758 20.4828C26.2523 20.619 26.0355 20.7667 25.8257 20.9252C25.7479 20.8506 25.6712 20.7744 25.5938 20.6955C25.0678 20.1599 24.3473 19.4262 22.8714 19.8072C22.5084 19.9005 22.1986 19.983 21.9293 20.0545C21.1208 20.2695 20.7148 20.3774 20.3859 20.3774C20.0592 20.3774 19.6576 20.2707 18.8575 20.058C18.585 19.9854 18.2701 19.9018 17.9013 19.8073C16.4232 19.4261 15.7031 20.1611 15.1774 20.6977C14.872 21.0094 14.5931 21.2941 14.1329 21.4801C14.5793 17.3406 17.5789 15.3917 20.386 15.3385ZM14.0759 24.7645V23.3266C15.3348 23.0486 15.9805 22.3897 16.4328 21.9279C16.8862 21.4654 16.9681 21.3821 17.4635 21.5098C17.8277 21.6032 18.1375 21.6856 18.4059 21.7569C19.3238 22.0008 19.8294 22.1353 20.3859 22.1353C20.9447 22.1353 21.4548 21.9995 22.381 21.7532C22.6462 21.6827 22.9514 21.6016 23.3096 21.5095C23.8048 21.382 23.8862 21.4653 24.3396 21.927C24.4051 21.9937 24.4746 22.0644 24.5493 22.1375C23.2012 23.7347 22.4902 25.8499 22.4902 28.3024V30.5016C22.4902 30.531 22.4922 30.5608 22.4927 30.5903C22.2887 30.6916 22.0844 30.7816 21.8816 30.8567C20.7772 31.2651 19.9945 31.2651 18.8911 30.857C18.6022 30.7498 18.3173 30.6186 18.0391 30.4668C18.0118 30.4496 17.9832 30.4336 17.9537 30.4192C17.9527 30.4188 17.9518 30.4184 17.9511 30.4179C15.8006 29.2045 14.0759 26.7725 14.0759 24.7645ZM20.9178 35.2749C20.9069 35.2812 20.8961 35.2879 20.8857 35.2947C20.4148 35.5992 20.3592 35.5994 19.8911 35.2956C19.8799 35.2883 19.8685 35.2812 19.8569 35.2745L17.0539 33.6323C17.5317 33.3084 17.8327 32.8297 18.0316 32.4079C18.1141 32.4419 18.1973 32.4743 18.2806 32.5053C19.7759 33.0585 20.996 33.0584 22.4918 32.5053C22.5989 32.4657 22.706 32.4227 22.8131 32.3774C22.9701 32.855 23.1809 33.3311 23.4378 33.796L20.9178 35.2749ZM31.0871 41.0117C31.0754 41.0185 31.0641 41.0255 31.0528 41.0329C30.5845 41.3369 30.5287 41.3372 30.0597 41.0329C30.0486 41.0256 30.0373 41.0186 30.0257 41.0119L27.223 39.3686C27.7011 39.0442 28.0031 38.5661 28.2023 38.1436C28.2854 38.1779 28.3686 38.2114 28.4525 38.2424C29.2002 38.519 29.8789 38.6573 30.5578 38.6573C31.2369 38.6573 31.9161 38.5189 32.6643 38.2422C32.7475 38.2114 32.83 38.178 32.9125 38.144C33.1113 38.5663 33.4127 39.0445 33.8911 39.369L31.0871 41.0117ZM36.8681 30.5017C36.8681 32.7954 34.618 35.6424 32.0536 36.5938C30.9495 37.0024 30.1666 37.0024 29.0628 36.5941C26.4978 35.6433 24.2479 32.7964 24.2479 30.5017V29.0618C25.5052 28.7835 26.1527 28.1267 26.6048 27.6653C27.0581 27.2026 27.1398 27.1194 27.6351 27.247C27.9921 27.3387 28.2969 27.4198 28.5617 27.4902C29.4884 27.7368 29.999 27.8725 30.5579 27.8725C31.1128 27.8725 31.6213 27.7375 32.5443 27.4922C32.8113 27.4213 33.1191 27.3395 33.4818 27.2466C33.9743 27.1196 34.0562 27.2027 34.5096 27.6651C34.9622 28.1266 35.6103 28.7835 36.868 29.0618V30.5017H36.8681ZM41.2595 35.2744C41.2477 35.2813 41.2363 35.2884 41.2249 35.2958C40.7565 35.5997 40.7007 35.6001 40.2321 35.2958C40.2208 35.2885 40.2096 35.2815 40.198 35.2748L37.6775 33.797C37.9346 33.3319 38.1457 32.8556 38.3028 32.3779C38.4089 32.4228 38.5152 32.4657 38.6215 32.5054C39.3691 32.782 40.0477 32.9202 40.7267 32.9202C41.4057 32.9202 42.0849 32.7819 42.8329 32.5052C42.9166 32.4742 42.9996 32.4406 43.0825 32.4066C43.2821 32.8294 43.5846 33.3081 44.064 33.6326L41.2595 35.2744Z" fill="black"/>
</svg>
