<svg width="60" height="60" viewBox="0 0 60 60" fill="none" xmlns="http://www.w3.org/2000/svg">
<path d="M30 60C21.9867 60 14.453 56.8794 8.78685 51.2132C3.12071 45.5469 0 38.0133 0 30C0 21.9867 3.12059 14.453 8.78685 8.78685C14.4531 3.12071 21.9867 0 30 0C35.3431 0 40.5893 1.42242 45.1714 4.11362C49.6183 6.72535 53.3413 10.4609 55.9378 14.9164C56.1855 15.3416 56.0418 15.8872 55.6166 16.1349C55.1916 16.3825 54.6459 16.239 54.398 15.8136C51.9552 11.6218 48.4527 8.10737 44.2689 5.65022C39.9602 3.11976 35.0261 1.78218 30 1.78218C22.4628 1.78218 15.3766 4.71731 10.047 10.047C4.71731 15.3766 1.78218 22.4628 1.78218 30C1.78218 37.5372 4.71731 44.6234 10.047 49.953C15.3766 55.2827 22.4628 58.2178 30 58.2178C37.5372 58.2178 44.6234 55.2827 49.953 49.953C55.2827 44.6234 58.2178 37.5372 58.2178 30C58.2178 26.2069 57.4782 22.5265 56.0194 19.0611C55.8285 18.6076 56.0414 18.0851 56.495 17.8941C56.9484 17.7031 57.4712 17.9162 57.662 18.3697C59.2133 22.0552 60 25.9681 60 30C60 38.0133 56.8794 45.547 51.2132 51.2132C45.5469 56.8793 38.0133 60 30 60Z" fill="white"/>
<path d="M30 53.5103C17.0364 53.5103 6.48975 42.9636 6.48975 30C6.48975 17.0364 17.0364 6.48975 30 6.48975C42.9637 6.48975 53.5104 17.0364 53.5104 30C53.5104 42.9636 42.9637 53.5103 30 53.5103ZM30 8.27192C18.0191 8.27192 8.27192 18.0191 8.27192 30C8.27192 41.9809 18.0191 51.7281 30 51.7281C41.981 51.7281 51.7282 41.9809 51.7282 30C51.7282 18.0191 41.981 8.27192 30 8.27192Z" fill="white"/>
<path d="M22.2914 48.0597C20.4898 48.0597 19.0241 46.594 19.0241 44.7924V43.2552H18.2967C16.4951 43.2552 15.0294 41.7895 15.0294 39.9878C15.0294 38.1862 16.4951 36.7205 18.2967 36.7205H19.0241V35.7697H18.2967C16.4951 35.7697 15.0294 34.304 15.0294 32.5023C15.0294 30.7007 16.4951 29.235 18.2967 29.235H19.0241V26.4169C19.0241 25.9248 19.4231 25.5258 19.9152 25.5258C20.4073 25.5258 20.8063 25.9248 20.8063 26.4169V30.1261C20.8063 30.6182 20.4073 31.0172 19.9152 31.0172H18.2967C17.4778 31.0172 16.8116 31.6834 16.8116 32.5023C16.8116 33.3213 17.4778 33.9875 18.2967 33.9875H19.9152C20.4073 33.9875 20.8063 34.3865 20.8063 34.8786V37.6116C20.8063 38.1037 20.4073 38.5027 19.9152 38.5027H18.2967C17.4778 38.5027 16.8116 39.1689 16.8116 39.9878C16.8116 40.8068 17.4778 41.473 18.2967 41.473H19.9152C20.4073 41.473 20.8063 41.872 20.8063 42.3641V44.7924C20.8063 45.6113 21.4725 46.2775 22.2914 46.2775C23.1104 46.2775 23.7766 45.6113 23.7766 44.7924V42.3641C23.7766 41.872 24.1756 41.473 24.6677 41.473H32.9792C33.7981 41.473 34.4643 40.8068 34.4643 39.9878C34.4643 39.1689 33.7981 38.5027 32.9792 38.5027H24.6677C24.1756 38.5027 23.7766 38.1037 23.7766 37.6116V34.8786C23.7766 34.3865 24.1756 33.9875 24.6677 33.9875H34.136C39.5651 33.9875 43.9821 29.5705 43.9821 24.1414C43.9821 18.7123 39.5651 14.2954 34.136 14.2954H22.2914C21.4725 14.2954 20.8063 14.9615 20.8063 15.7805V22.8523C20.8063 23.3444 20.4073 23.7434 19.9152 23.7434C19.4231 23.7434 19.0241 23.3444 19.0241 22.8523V15.7805C19.0241 13.9788 20.4898 12.5132 22.2914 12.5132H34.136C40.5478 12.5132 45.7643 17.7296 45.7643 24.1414C45.7643 30.5532 40.5478 35.7697 34.136 35.7697H25.5588V36.7205H32.9792C34.7808 36.7205 36.2465 38.1862 36.2465 39.9878C36.2465 41.7895 34.7808 43.2552 32.9792 43.2552H25.5588V44.7924C25.5588 46.594 24.0931 48.0597 22.2914 48.0597ZM34.136 31.0172H24.6677C24.1756 31.0172 23.7766 30.6182 23.7766 30.1261V18.1567C23.7766 17.6646 24.1756 17.2657 24.6677 17.2657H34.136C37.9273 17.2657 41.0118 20.3501 41.0118 24.1414C41.0118 27.9327 37.9273 31.0172 34.136 31.0172ZM25.5588 29.235H34.136C36.9446 29.235 39.2296 26.9501 39.2296 24.1414C39.2296 21.3327 36.9446 19.0478 34.136 19.0478H25.5588V29.235Z" fill="white"/>
</svg>
