<svg width="60" height="60" viewBox="0 0 60 60" fill="none" xmlns="http://www.w3.org/2000/svg">
<g clip-path="url(#clip0)">
<path d="M53.288 18.3278L54.5149 16.9005L55.7106 17.9286C55.8716 18.0671 56.0765 18.1425 56.2874 18.1425C56.3096 18.1425 56.3318 18.1416 56.354 18.14C56.5879 18.1223 56.8053 18.0125 56.9583 17.8345L58.8579 15.625C59.1764 15.2545 59.1343 14.6959 58.7637 14.3774L52.2305 8.76065C52.0525 8.60765 51.8212 8.53073 51.5872 8.54925C51.3532 8.56683 51.1358 8.67677 50.9828 8.85466L49.0832 11.0641C48.7647 11.4347 48.8069 11.9932 49.1774 12.3117L50.3731 13.3398L49.0522 14.8761C46.3466 13.148 43.2676 11.9549 39.9654 11.4482V8.77492H43.0125C44.4346 8.77492 45.5915 7.61793 45.5915 6.19575V4.13727C45.5915 2.7151 44.4345 1.55811 43.0125 1.55811H29.7199C28.2977 1.55811 27.1407 2.7151 27.1407 4.13727V6.19575C27.1407 7.61793 28.2977 8.77492 29.7199 8.77492H32.767V11.4482C29.3997 11.9649 26.265 13.196 23.521 14.9796L22.1112 13.3398L23.307 12.3117C23.4849 12.1587 23.5947 11.9413 23.6124 11.7074C23.63 11.4735 23.554 11.242 23.401 11.064L21.5014 8.85454C21.1828 8.48414 20.6244 8.44191 20.2537 8.76053L13.7206 14.3773C13.5428 14.5303 13.4329 14.7477 13.4152 14.9816C13.3977 15.2155 13.4736 15.447 13.6266 15.625L15.5262 17.8345C15.7011 18.0379 15.9486 18.1423 16.1974 18.1423C16.4016 18.1423 16.6069 18.072 16.7738 17.9285L17.9695 16.9005L19.3127 18.4628C18.1503 19.6752 17.1159 21.0111 16.2306 22.4482C16.2007 22.4451 16.1704 22.4436 16.1396 22.4436H10.5525C10.0639 22.4436 9.66775 22.8397 9.66775 23.3283C9.66775 23.8169 10.0639 24.213 10.5525 24.213H15.245C14.7791 25.1379 14.3724 26.0971 14.0295 27.0861H5.09027C4.60166 27.0861 4.20554 27.4823 4.20554 27.9709C4.20554 28.4595 4.60166 28.8556 5.09027 28.8556H13.4924C13.1729 30.082 12.9512 31.3471 12.8329 32.6419H0.884731C0.396124 32.6419 0 33.038 0 33.5266C0 34.0152 0.396124 34.4114 0.884731 34.4114H12.7377C12.7354 34.5436 12.7326 34.6756 12.7326 34.8084C12.7326 35.9592 12.8169 37.0905 12.9766 38.1977H4.26452C3.77592 38.1977 3.37979 38.5938 3.37979 39.0824C3.37979 39.571 3.77592 39.9671 4.26452 39.9671H13.3013C13.5207 40.9491 13.8009 41.9082 14.1387 42.8401H9.72674C9.23813 42.8401 8.842 43.2363 8.842 43.7249C8.842 44.2135 9.23813 44.6096 9.72674 44.6096H14.8629C18.5941 52.7632 26.8291 58.4421 36.3663 58.4421C41.3476 58.4421 46.1118 56.9104 50.1441 54.0128C50.5408 53.7277 50.6314 53.1748 50.3463 52.778C50.0608 52.3811 49.5082 52.2909 49.1114 52.576C45.382 55.2561 40.9747 56.6727 36.3663 56.6727C24.3103 56.6727 14.502 46.8645 14.502 34.8086C14.502 22.7525 24.3103 12.9442 36.3663 12.9442C42.2024 12.9442 47.5117 15.2428 51.4367 18.982C51.4448 18.9905 51.4537 18.9983 51.4621 19.0065C55.6304 22.9902 58.2305 28.6014 58.2305 34.8086C58.2305 40.6558 55.9515 46.1513 51.813 50.2824C51.4672 50.6277 51.4667 51.1878 51.812 51.5336C52.1572 51.8794 52.7174 51.88 53.0631 51.5347C57.5364 47.0692 60 41.1291 60 34.8084C60 28.4044 57.4386 22.5884 53.288 18.3278ZM51.7479 10.6791L56.9394 15.1423L56.1934 16.0099L51.0019 11.5467L51.7479 10.6791ZM51.715 14.4934L53.1732 15.747L52.0053 17.1054C51.5252 16.6808 51.0286 16.2743 50.515 15.8891L51.715 14.4934ZM32.4536 7.00546V3.32757H33.8824V7.00546H32.4536ZM35.6518 3.32757H37.0806V7.00546H35.6518V3.32757ZM38.8501 7.00546V3.32757H40.279V7.00546H38.8501ZM43.8223 4.13727V6.19575C43.8223 6.64224 43.4591 7.00546 43.0127 7.00546H42.0486V3.32757H43.0127C43.4591 3.32757 43.8223 3.69078 43.8223 4.13727ZM28.9103 6.19575V4.13727C28.9103 3.69078 29.2735 3.32757 29.72 3.32757H30.6841V7.00546H29.72C29.2735 7.00546 28.9103 6.64224 28.9103 6.19575ZM16.2911 16.01L15.5451 15.1424L20.7365 10.6792L21.4825 11.5468L20.2869 12.5748C20.2869 12.5748 20.2868 12.5749 20.2867 12.5749L17.4868 14.9821C17.4867 14.9822 17.4867 14.9822 17.4865 14.9823L16.2911 16.01ZM19.3377 15.7242L20.7694 14.4934L22.068 16.0039C21.5576 16.3929 21.0632 16.8019 20.5865 17.2304L19.3112 15.7471L19.3377 15.7242ZM34.5365 11.2449V8.77492H38.1961V11.245C37.5921 11.1985 36.9819 11.1747 36.3662 11.1747C35.7506 11.1747 35.1405 11.1985 34.5365 11.2449Z" fill="white"/>
<path d="M28.9565 18.6894C28.7302 18.2564 28.1956 18.0889 27.7626 18.3151C22.3837 21.1267 18.7049 26.3938 17.9216 32.4045C16.5963 42.5749 23.7923 51.9275 33.9627 53.2527C34.7753 53.3586 35.5809 53.4101 36.3793 53.4099C45.5745 53.4091 53.5914 46.5694 54.8109 37.2116C55.4528 32.2848 54.1379 27.403 51.108 23.4652C48.0782 19.5276 43.6964 17.0054 38.7695 16.3633C36.3659 16.05 33.9687 16.2011 31.6441 16.8119C31.1716 16.9361 30.8892 17.4199 31.0133 17.8925C31.1375 18.365 31.6215 18.6472 32.0938 18.5233C33.2072 18.2308 34.3395 18.0561 35.4814 17.9975V20.3219C35.4814 20.8105 35.8774 21.2067 36.3661 21.2067C36.8548 21.2067 37.2508 20.8105 37.2508 20.3219V17.9996C37.6804 18.0228 38.1104 18.0617 38.541 18.1178C41.9865 18.5668 45.137 20.0328 47.6563 22.3203L46.054 23.9224C45.7084 24.268 45.7084 24.8281 46.0539 25.1736C46.2267 25.3464 46.4531 25.4327 46.6796 25.4327C46.906 25.4327 47.1325 25.3464 47.3052 25.1736L48.9029 23.5759C49.1808 23.8871 49.4487 24.2099 49.7057 24.544C51.8212 27.2934 53.0117 30.5516 53.1787 33.9444H50.9841C50.4954 33.9444 50.0994 34.3406 50.0994 34.8292C50.0994 35.3178 50.4954 35.7139 50.9841 35.7139H53.1739C53.1505 36.136 53.1115 36.5591 53.0563 36.9826C52.6005 40.4801 51.0949 43.5883 48.8991 46.0327L47.3834 44.517C47.0377 44.1715 46.4776 44.1715 46.1321 44.517C45.7866 44.8625 45.7866 45.4227 46.1321 45.7681L47.6495 47.2855C44.8628 49.8017 41.2544 51.3807 37.3614 51.6098V49.4469C37.3614 48.9583 36.9654 48.5622 36.4766 48.5622C35.9879 48.5622 35.5919 48.9583 35.5919 49.4469V51.6207C35.1275 51.599 34.6605 51.559 34.1914 51.4977C30.7324 51.047 27.6538 49.5699 25.2217 47.4132L26.7887 45.8462C27.1342 45.5007 27.1342 44.9406 26.7887 44.5951C26.4432 44.2496 25.883 44.2496 25.5376 44.5951L23.9616 46.171C21.4077 43.3785 19.8012 39.7463 19.5654 35.8242H21.8588C22.3474 35.8242 22.7435 35.4281 22.7435 34.9395C22.7435 34.4509 22.3474 34.0547 21.8588 34.0547H19.5524C19.5739 33.5834 19.6141 33.1091 19.6762 32.6329C20.1191 29.2343 21.5853 26.0982 23.8106 23.6028L25.4595 25.2515C25.6322 25.4244 25.8587 25.5107 26.0851 25.5107C26.3114 25.5107 26.5379 25.4244 26.7106 25.2515C27.0561 24.906 27.0561 24.3458 26.7106 24.0004L25.0572 22.347C26.1111 21.3893 27.292 20.5574 28.5822 19.883C29.0153 19.657 29.1829 19.1224 28.9565 18.6894Z" fill="white"/>
<path d="M36.3664 26.6929C35.8776 26.6929 35.4816 27.089 35.4816 27.5776V32.8329C34.7272 33.1722 34.1998 33.9291 34.1998 34.8086C34.1998 36.0032 35.1717 36.9751 36.3664 36.9751C36.6938 36.9751 37.0034 36.9 37.282 36.7692L43.1846 42.6718C43.3574 42.8446 43.5838 42.931 43.8103 42.931C44.0366 42.931 44.2631 42.8446 44.4359 42.6718C44.7815 42.3263 44.7815 41.7661 44.4359 41.4207L38.4419 35.4266C38.5004 35.2305 38.5329 35.0234 38.5329 34.8086C38.5329 33.9293 38.0055 33.1722 37.2512 32.833V27.5777C37.2511 27.089 36.855 26.6929 36.3664 26.6929ZM35.9693 34.8085C35.9693 34.5895 36.1474 34.4114 36.3664 34.4114C36.5852 34.4114 36.7633 34.5895 36.7633 34.8085C36.7633 35.0274 36.5852 35.2055 36.3664 35.2055C36.1473 35.2055 35.9693 35.0274 35.9693 34.8085Z" fill="white"/>
</g>
<defs>
<clipPath id="clip0">
<rect width="60" height="60" fill="white"/>
</clipPath>
</defs>
</svg>
