<svg width="60" height="60" viewBox="0 0 60 60" fill="none" xmlns="http://www.w3.org/2000/svg">
<g clip-path="url(#clip0)">
<path d="M53.288 18.3278L54.5149 16.9005L55.7106 17.9286C55.8716 18.0671 56.0765 18.1425 56.2874 18.1425C56.3096 18.1425 56.3318 18.1416 56.354 18.14C56.5879 18.1223 56.8053 18.0125 56.9583 17.8345L58.8579 15.625C59.1764 15.2545 59.1343 14.6959 58.7637 14.3774L52.2305 8.76065C52.0525 8.60765 51.8212 8.53073 51.5872 8.54925C51.3532 8.56683 51.1358 8.67677 50.9828 8.85466L49.0832 11.0641C48.7647 11.4347 48.8069 11.9932 49.1774 12.3117L50.3731 13.3398L49.0522 14.8761C46.3466 13.148 43.2676 11.9549 39.9654 11.4482V8.77492H43.0125C44.4346 8.77492 45.5915 7.61793 45.5915 6.19575V4.13727C45.5915 2.7151 44.4345 1.55811 43.0125 1.55811H29.7199C28.2977 1.55811 27.1407 2.7151 27.1407 4.13727V6.19575C27.1407 7.61793 28.2977 8.77492 29.7199 8.77492H32.767V11.4482C29.3997 11.9649 26.265 13.196 23.521 14.9796L22.1112 13.3398L23.307 12.3117C23.4849 12.1587 23.5947 11.9413 23.6124 11.7074C23.63 11.4735 23.554 11.242 23.401 11.064L21.5014 8.85454C21.1828 8.48414 20.6244 8.44191 20.2537 8.76053L13.7206 14.3773C13.5428 14.5303 13.4329 14.7477 13.4152 14.9816C13.3977 15.2155 13.4736 15.447 13.6266 15.625L15.5262 17.8345C15.7011 18.0379 15.9486 18.1423 16.1974 18.1423C16.4016 18.1423 16.6069 18.072 16.7738 17.9285L17.9695 16.9005L19.3127 18.4628C18.1503 19.6752 17.1159 21.0111 16.2306 22.4482C16.2007 22.4451 16.1704 22.4436 16.1396 22.4436H10.5525C10.0639 22.4436 9.66775 22.8397 9.66775 23.3283C9.66775 23.8169 10.0639 24.213 10.5525 24.213H15.245C14.7791 25.1379 14.3724 26.0971 14.0295 27.0861H5.09027C4.60166 27.0861 4.20554 27.4823 4.20554 27.9709C4.20554 28.4595 4.60166 28.8556 5.09027 28.8556H13.4924C13.1729 30.082 12.9512 31.3471 12.8329 32.6419H0.884731C0.396124 32.6419 0 33.038 0 33.5266C0 34.0152 0.396124 34.4114 0.884731 34.4114H12.7377C12.7354 34.5436 12.7326 34.6756 12.7326 34.8084C12.7326 35.9592 12.8169 37.0905 12.9766 38.1977H4.26452C3.77592 38.1977 3.37979 38.5938 3.37979 39.0824C3.37979 39.571 3.77592 39.9671 4.26452 39.9671H13.3013C13.5207 40.9491 13.8009 41.9082 14.1387 42.8401H9.72674C9.23813 42.8401 8.842 43.2363 8.842 43.7249C8.842 44.2135 9.23813 44.6096 9.72674 44.6096H14.8629C18.5941 52.7632 26.8291 58.4421 36.3663 58.4421C41.3476 58.4421 46.1118 56.9104 50.1441 54.0128C50.5408 53.7277 50.6314 53.1748 50.3463 52.778C50.0608 52.3811 49.5082 52.2909 49.1114 52.576C45.382 55.2561 40.9747 56.6727 36.3663 56.6727C24.3103 56.6727 14.502 46.8645 14.502 34.8086C14.502 22.7525 24.3103 12.9442 36.3663 12.9442C42.2024 12.9442 47.5117 15.2428 51.4367 18.982C51.4448 18.9905 51.4537 18.9983 51.4621 19.0065C55.6304 22.9902 58.2305 28.6014 58.2305 34.8086C58.2305 40.6558 55.9515 46.1513 51.813 50.2824C51.4672 50.6277 51.4667 51.1878 51.812 51.5336C52.1572 51.8794 52.7174 51.88 53.0631 51.5347C57.5364 47.0692 60 41.1291 60 34.8084C60 28.4044 57.4386 22.5884 53.288 18.3278ZM51.7479 10.6791L56.9394 15.1423L56.1934 16.0099L51.0019 11.5467L51.7479 10.6791ZM51.715 14.4934L53.1732 15.747L52.0053 17.1054C51.5252 16.6808 51.0286 16.2743 50.515 15.8891L51.715 14.4934ZM32.4536 7.00546V3.32757H33.8824V7.00546H32.4536ZM35.6518 3.32757H37.0806V7.00546H35.6518V3.32757ZM38.8501 7.00546V3.32757H40.279V7.00546H38.8501ZM43.8223 4.13727V6.19575C43.8223 6.64224 43.4591 7.00546 43.0127 7.00546H42.0486V3.32757H43.0127C43.4591 3.32757 43.8223 3.69078 43.8223 4.13727ZM28.9103 6.19575V4.13727C28.9103 3.69078 29.2735 3.32757 29.72 3.32757H30.6841V7.00546H29.72C29.2735 7.00546 28.9103 6.64224 28.9103 6.19575ZM16.2911 16.01L15.5451 15.1424L20.7365 10.6792L21.4825 11.5468L20.2869 12.5748C20.2869 12.5748 20.2868 12.5749 20.2867 12.5749L17.4868 14.9821C17.4867 14.9822 17.4867 14.9822 17.4865 14.9823L16.2911 16.01ZM19.3377 15.7242L20.7694 14.4934L22.068 16.0039C21.5576 16.3929 21.0632 16.8019 20.5865 17.2304L19.3112 15.7471L19.3377 15.7242ZM34.5365 11.2449V8.77492H38.1961V11.245C37.5921 11.1985 36.9819 11.1747 36.3662 11.1747C35.7506 11.1747 35.1405 11.1985 34.5365 11.2449Z" fill="black"/>
<path d="M28.9564 18.6897C28.7301 18.2566 28.1954 18.0891 27.7625 18.3154C22.3836 21.1269 18.7048 26.394 17.9215 32.4048C16.5961 42.5752 23.7922 51.9277 33.9626 53.2529C34.7751 53.3589 35.5808 53.4103 36.3792 53.4102C45.5744 53.4094 53.5912 46.5697 54.8108 37.2118C55.4527 32.2851 54.1378 27.4032 51.1079 23.4655C48.0781 19.5278 43.6963 17.0056 38.7694 16.3635C36.3658 16.0502 33.9686 16.2013 31.644 16.8122C31.1714 16.9364 30.889 17.4201 31.0131 17.8927C31.1373 18.3653 31.6214 18.6474 32.0937 18.5236C33.207 18.231 34.3394 18.0563 35.4813 17.9977V20.3222C35.4813 20.8108 35.8773 21.2069 36.366 21.2069C36.8547 21.2069 37.2507 20.8108 37.2507 20.3222V17.9998C37.6802 18.0231 38.1103 18.062 38.5409 18.118C41.9864 18.567 45.1369 20.0331 47.6562 22.3205L46.0539 23.9227C45.7083 24.2682 45.7083 24.8283 46.0538 25.1738C46.2266 25.3466 46.453 25.433 46.6795 25.433C46.9059 25.433 47.1323 25.3466 47.305 25.1738L48.9028 23.5761C49.1807 23.8873 49.4486 24.2102 49.7056 24.5442C51.8211 27.2936 53.0116 30.5518 53.1786 33.9447H50.984C50.4953 33.9447 50.0993 34.3408 50.0993 34.8294C50.0993 35.318 50.4953 35.7141 50.984 35.7141H53.1738C53.1504 36.1362 53.1114 36.5594 53.0562 36.9829C52.6003 40.4804 51.0948 43.5885 48.899 46.0329L47.3833 44.5172C47.0376 44.1717 46.4775 44.1717 46.132 44.5172C45.7865 44.8627 45.7865 45.423 46.132 45.7684L47.6494 47.2857C44.8627 49.8019 41.2543 51.381 37.3613 51.6101V49.4472C37.3613 48.9586 36.9652 48.5625 36.4765 48.5625C35.9878 48.5625 35.5918 48.9586 35.5918 49.4472V51.6209C35.1274 51.5992 34.6603 51.5592 34.1913 51.498C30.7323 51.0473 27.6536 49.5701 25.2216 47.4135L26.7886 45.8464C27.1341 45.5009 27.1341 44.9408 26.7886 44.5953C26.4431 44.2498 25.8829 44.2498 25.5375 44.5953L23.9615 46.1712C21.4075 43.3788 19.8011 39.7465 19.5653 35.8244H21.8586C22.3472 35.8244 22.7434 35.4283 22.7434 34.9397C22.7434 34.4511 22.3472 34.055 21.8586 34.055H19.5523C19.5738 33.5836 19.614 33.1094 19.6761 32.6332C20.119 29.2345 21.5852 26.0984 23.8105 23.603L25.4594 25.2518C25.6321 25.4246 25.8586 25.511 26.0849 25.511C26.3113 25.511 26.5378 25.4246 26.7105 25.2518C27.056 24.9063 27.056 24.3461 26.7105 24.0007L25.0571 22.3473C26.111 21.3895 27.2918 20.5576 28.5821 19.8832C29.0152 19.6572 29.1828 19.1226 28.9564 18.6897Z" fill="black"/>
<path d="M36.3662 26.6926C35.8775 26.6926 35.4815 27.0888 35.4815 27.5774V32.8327C34.7271 33.1719 34.1997 33.9289 34.1997 34.8083C34.1997 36.0029 35.1716 36.9749 36.3662 36.9749C36.6937 36.9749 37.0032 36.8997 37.2819 36.769L43.1844 42.6716C43.3573 42.8444 43.5836 42.9307 43.8101 42.9307C44.0365 42.9307 44.263 42.8444 44.4358 42.6716C44.7813 42.3261 44.7813 41.7658 44.4358 41.4205L38.4418 35.4263C38.5003 35.2303 38.5328 35.0231 38.5328 34.8083C38.5328 33.929 38.0053 33.1719 37.2511 32.8328V27.5775C37.251 27.0888 36.8548 26.6926 36.3662 26.6926ZM35.9692 34.8082C35.9692 34.5893 36.1473 34.4111 36.3662 34.4111C36.5851 34.4111 36.7632 34.5893 36.7632 34.8082C36.7632 35.0271 36.5851 35.2053 36.3662 35.2053C36.1472 35.2053 35.9692 35.0271 35.9692 34.8082Z" fill="black"/>
</g>
<defs>
<clipPath id="clip0">
<rect width="60" height="60" fill="white"/>
</clipPath>
</defs>
</svg>
