<svg width="60" height="60" fill="none" xmlns="http://www.w3.org/2000/svg"><path d="M30 60c-8.013 0-15.547-3.12-21.213-8.787C3.12 45.547 0 38.013 0 30c0-8.013 3.12-15.547 8.787-21.213C14.453 3.12 21.987 0 30 0c5.343 0 10.59 1.422 15.171 4.114a30.173 30.173 0 0110.767 10.802.891.891 0 11-1.54.898A28.386 28.386 0 0044.268 5.65 28.194 28.194 0 0030 1.782c-7.537 0-14.623 2.935-19.953 8.265S1.782 22.463 1.782 30c0 7.537 2.935 14.623 8.265 19.953S22.463 58.218 30 58.218c7.537 0 14.623-2.935 19.953-8.265S58.218 37.537 58.218 30c0-3.793-.74-7.474-2.199-10.939a.891.891 0 011.643-.691A29.817 29.817 0 0160 30c0 8.013-3.12 15.547-8.787 21.213C45.547 56.88 38.013 60 30 60z" fill="#000"/><path d="M30 53.51C17.036 53.51 6.49 42.964 6.49 30 6.49 17.036 17.036 6.49 30 6.49c12.964 0 23.51 10.546 23.51 23.51 0 12.964-10.546 23.51-23.51 23.51zm0-45.238C18.02 8.272 8.272 18.019 8.272 30c0 11.98 9.747 21.728 21.728 21.728 11.981 0 21.728-9.747 21.728-21.728 0-11.98-9.747-21.728-21.728-21.728z" fill="#000"/><path d="M22.291 48.06a3.271 3.271 0 01-3.267-3.268v-1.537h-.727a3.271 3.271 0 01-3.268-3.267 3.271 3.271 0 013.268-3.267h.727v-.951h-.727a3.271 3.271 0 01-3.268-3.268 3.271 3.271 0 013.268-3.267h.727v-2.818a.891.891 0 011.782 0v3.71a.891.891 0 01-.89.89h-1.62c-.818 0-1.485.666-1.485 1.485 0 .82.667 1.485 1.486 1.485h1.618c.492 0 .891.4.891.892v2.733a.891.891 0 01-.89.89h-1.62a1.487 1.487 0 000 2.97h1.62c.491.001.89.4.89.892v2.428c0 .82.666 1.486 1.485 1.486.82 0 1.485-.667 1.485-1.486v-2.428c0-.492.4-.891.892-.891h8.311a1.486 1.486 0 000-2.97h-8.311a.891.891 0 01-.892-.891v-2.733c0-.492.4-.892.892-.892h9.468c5.429 0 9.846-4.417 9.846-9.846s-4.417-9.846-9.846-9.846H22.29c-.819 0-1.485.666-1.485 1.486v7.071a.891.891 0 01-1.782 0V15.78a3.27 3.27 0 013.267-3.267h11.845c6.412 0 11.628 5.217 11.628 11.628 0 6.412-5.216 11.629-11.628 11.629h-8.577v.95h7.42a3.271 3.271 0 013.267 3.268 3.271 3.271 0 01-3.267 3.267h-7.42v1.537a3.27 3.27 0 01-3.268 3.268zm11.845-17.043h-9.468a.891.891 0 01-.892-.89v-11.97c0-.492.4-.891.892-.891h9.468a6.884 6.884 0 016.876 6.875 6.884 6.884 0 01-6.876 6.876zm-8.577-1.782h8.577a5.1 5.1 0 005.093-5.094 5.1 5.1 0 00-5.093-5.093h-8.577v10.187z" fill="#000"/></svg>