<svg width="60" height="60" fill="none" xmlns="http://www.w3.org/2000/svg"><path d="M30 0C18.363 0 8.906 9.457 8.906 21.094a20.8 20.8 0 003.164 11.074l16.5 27.002c.282.457.703.738 1.196.808a1.75 1.75 0 001.793-.843l16.547-27.248c1.968-3.235 2.988-6.996 2.988-10.793C51.094 9.457 41.637 0 30 0zm0 31.64c-5.906 0-10.547-4.78-10.547-10.546 0-5.801 4.746-10.547 10.547-10.547 5.8 0 10.547 4.746 10.547 10.547 0 5.73-4.57 10.547-10.547 10.547z" fill="#FD003A"/><path d="M30 0v10.547c5.8 0 10.547 4.746 10.547 10.547 0 5.73-4.57 10.547-10.547 10.547v28.358a1.74 1.74 0 001.559-.864l16.546-27.248c1.97-3.235 2.989-6.996 2.989-10.793C51.094 9.457 41.637 0 30 0z" fill="#E50027"/></svg>