<svg width="152" height="56" fill="none" xmlns="http://www.w3.org/2000/svg"><path d="M9.264 16.84h7.344L22.044 46h-5.94l-.972-6.156h-4.284L9.84 46H3.756l5.508-29.16zm5.256 19.152l-1.548-11.376-1.548 11.376h3.096zm10.144-10.8h5.868V33.4h.864l3.168-8.208h6.3L36.76 35.02 40.972 46H34.78l-3.384-9.216h-.864V46h-5.868V25.192zm20.977 3.96h-3.78v-3.96h13.392v3.96h-3.78V46h-5.832V29.152zm12.07-3.96h4.644v11.124l5.436-11.124h4.572V46h-4.752V34.984L62.319 46h-4.608V25.192zm18.281 0h7.38c1.992 0 3.528.216 4.608.648 1.08.408 1.812.984 2.196 1.728.384.744.576 1.68.576 2.808 0 1.296-.276 2.28-.828 2.952-.552.648-1.344 1.116-2.376 1.404 1.416.36 2.388.96 2.916 1.8.528.84.792 1.992.792 3.456 0 1.392-.264 2.532-.792 3.42-.504.864-1.356 1.512-2.556 1.944-1.2.432-2.82.648-4.86.648h-7.056V25.192zM83.3 33.4c.648 0 1.116-.204 1.404-.612.288-.432.432-1.068.432-1.908 0-.864-.156-1.524-.468-1.98-.312-.456-.912-.684-1.8-.684h-1.044V33.4H83.3zm-.504 9.36c.648 0 1.152-.048 1.512-.144.384-.12.684-.396.9-.828.24-.432.36-1.092.36-1.98 0-1.008-.108-1.74-.324-2.196-.216-.48-.504-.768-.864-.864-.36-.12-.876-.18-1.548-.18h-1.008v6.192h.972zm23.535-21.132h-4.392V16.84h15.228v4.788h-4.356V46h-6.48V21.628zm13.655 26.352c1.152 0 1.992-.132 2.52-.396.552-.24.828-.696.828-1.368 0-.6-.252-1.764-.756-3.492l-4.896-17.532h5.508l2.628 12.024 1.98-12.024h5.544l-4.788 21.312c-.456 2.04-1.284 3.468-2.484 4.284-1.2.84-2.784 1.26-4.752 1.26h-1.332V47.98zm15.561-22.788h5.868v1.512a6.973 6.973 0 012.196-1.404c.792-.312 1.56-.468 2.304-.468 1.512 0 2.628.564 3.348 1.692.744 1.128 1.116 2.604 1.116 4.428v8.964c0 1.992-.396 3.564-1.188 4.716-.792 1.152-1.908 1.728-3.348 1.728-1.464 0-2.94-.648-4.428-1.944v8.424h-5.868V25.192zm7.416 17.388c.528 0 .912-.216 1.152-.648.264-.432.396-.996.396-1.692v-9.72c0-.624-.12-1.14-.36-1.548-.24-.408-.6-.612-1.08-.612-.576 0-1.128.24-1.656.72v12.96c.552.36 1.068.54 1.548.54z" fill="#ADFF00"/><path d="M6.264 13.84h7.344L19.044 43h-5.94l-.972-6.156H7.848L6.84 43H.756l5.508-29.16zm5.256 19.152L9.972 21.616 8.424 32.992h3.096zm10.144-10.8h5.868V30.4h.864l3.168-8.208h6.3L33.76 32.02 37.972 43H31.78l-3.384-9.216h-.864V43h-5.868V22.192zm20.977 3.96h-3.78v-3.96h13.392v3.96h-3.78V43h-5.832V26.152zm12.07-3.96h4.644v11.124l5.436-11.124h4.572V43h-4.752V31.984L59.319 43h-4.608V22.192zm18.281 0h7.38c1.992 0 3.528.216 4.608.648 1.08.408 1.812.984 2.196 1.728.384.744.576 1.68.576 2.808 0 1.296-.276 2.28-.828 2.952-.552.648-1.344 1.116-2.376 1.404 1.416.36 2.388.96 2.916 1.8.528.84.792 1.992.792 3.456 0 1.392-.264 2.532-.792 3.42-.504.864-1.356 1.512-2.556 1.944-1.2.432-2.82.648-4.86.648h-7.056V22.192zM80.3 30.4c.648 0 1.116-.204 1.404-.612.288-.432.432-1.068.432-1.908 0-.864-.156-1.524-.468-1.98-.312-.456-.912-.684-1.8-.684h-1.044V30.4H80.3zm-.504 9.36c.648 0 1.152-.048 1.512-.144.384-.12.684-.396.9-.828.24-.432.36-1.092.36-1.98 0-1.008-.108-1.74-.324-2.196-.216-.48-.504-.768-.864-.864-.36-.12-.876-.18-1.548-.18h-1.008v6.192h.972zm23.535-21.132h-4.392V13.84h15.228v4.788h-4.356V43h-6.48V18.628zm13.655 26.352c1.152 0 1.992-.132 2.52-.396.552-.24.828-.696.828-1.368 0-.6-.252-1.764-.756-3.492l-4.896-17.532h5.508l2.628 12.024 1.98-12.024h5.544l-4.788 21.312c-.456 2.04-1.284 3.468-2.484 4.284-1.2.84-2.784 1.26-4.752 1.26h-1.332V44.98zm15.561-22.788h5.868v1.512a6.973 6.973 0 012.196-1.404c.792-.312 1.56-.468 2.304-.468 1.512 0 2.628.564 3.348 1.692.744 1.128 1.116 2.604 1.116 4.428v8.964c0 1.992-.396 3.564-1.188 4.716-.792 1.152-1.908 1.728-3.348 1.728-1.464 0-2.94-.648-4.428-1.944v8.424h-5.868V22.192zm7.416 17.388c.528 0 .912-.216 1.152-.648.264-.432.396-.996.396-1.692v-9.72c0-.624-.12-1.14-.36-1.548-.24-.408-.6-.612-1.08-.612-.576 0-1.128.24-1.656.72v12.96c.552.36 1.068.54 1.548.54z" fill="#1D8FE1"/></svg>