<svg width="169" height="169" fill="none" xmlns="http://www.w3.org/2000/svg"><path d="M84.5 0C61.847 0 41.294 9.019 26.104 23.587a7.042 7.042 0 00-2.53 2.517C9.008 41.294 0 61.85 0 84.5 0 131.085 37.915 169 84.5 169c22.604 0 43.119-8.978 58.3-23.491a7.044 7.044 0 002.696-2.695C160.016 127.632 169 107.111 169 84.5 169 37.915 131.085 0 84.5 0zm0 14.083c38.973 0 70.417 31.443 70.417 70.417 0 16.945-5.949 32.455-15.872 44.588L39.912 29.955C52.045 20.032 67.555 14.083 84.5 14.083zM29.955 39.912l99.133 99.133c-12.133 9.923-27.643 15.872-44.588 15.872-38.974 0-70.417-31.444-70.417-70.417 0-16.945 5.95-32.456 15.872-44.588z" fill="red"/></svg>