<svg width="60" height="60" fill="none" xmlns="http://www.w3.org/2000/svg"><path d="M57.217 26.613c-1.533-12.441-11.392-22.3-23.83-23.83A3.459 3.459 0 0030 0a3.459 3.459 0 00-3.387 2.783c-12.441 1.533-22.3 11.392-23.83 23.83A3.459 3.459 0 000 30a3.459 3.459 0 002.783 3.388c1.53 12.437 11.389 22.296 23.83 23.829A3.46 3.46 0 0030 60a3.459 3.459 0 003.388-2.783c12.437-1.533 22.296-11.392 23.829-23.83A3.46 3.46 0 0060 30a3.459 3.459 0 00-2.783-3.387zM30 1.758c.935 0 1.696.76 1.696 1.696a1.696 1.696 0 01-3.392 0c0-.936.761-1.696 1.696-1.696zM1.758 30c0-.935.76-1.696 1.696-1.696a1.696 1.696 0 010 3.392A1.698 1.698 0 011.758 30zM30 58.242c-.935 0-1.696-.76-1.696-1.695 0-.936.761-1.696 1.696-1.696.935 0 1.696.76 1.696 1.696 0 .934-.761 1.695-1.696 1.695zm3.277-2.783A3.459 3.459 0 0030 53.093a3.46 3.46 0 00-3.277 2.366C15.165 53.986 6.011 44.832 4.541 33.277A3.459 3.459 0 006.904 30a3.46 3.46 0 00-2.363-3.277C6.01 15.168 15.165 6.013 26.723 4.541A3.459 3.459 0 0030 6.904a3.46 3.46 0 003.277-2.363c11.555 1.47 20.71 10.624 22.182 22.182A3.459 3.459 0 0053.093 30a3.46 3.46 0 002.366 3.277c-1.473 11.555-10.627 20.709-22.182 22.182zm23.27-23.763A1.698 1.698 0 0154.851 30c0-.935.76-1.696 1.696-1.696.934 0 1.695.761 1.695 1.696 0 .935-.76 1.696-1.695 1.696z" fill="#fff"/><path d="M45.633 32.358l-.468-.126c-.232-.064-.404-.361-.533-.662 2.386-1.611 4.166-4.386 4.166-6.805v-2.2c0-2.711-.866-5.013-2.505-6.654-1.465-1.468-3.436-2.295-5.551-2.33h-.03c-3.145.052-6.6 1.983-7.698 6.15a8.179 8.179 0 00-2.47-.413 8.178 8.178 0 00-2.442.414c-1.102-4.168-4.557-6.1-7.701-6.151h-.03c-2.115.035-4.086.862-5.55 2.33-1.637 1.641-2.503 3.943-2.503 6.654v2.2c0 2.418 1.779 5.194 4.164 6.805-.129.3-.3.598-.533.662l-.47.126c-2.537.678-6.011 1.607-6.011 5.99v1.897c0 .804.653 1.457 1.458 1.457l6.734-.006a.879.879 0 00-.002-1.758l-6.433.006v-1.596c0-2.455 1.339-3.291 3.606-3.98l4.12 2.414c1.03.662 1.839.662 2.872 0l2.602-1.527a10.388 10.388 0 002.229 2.051c-.13.301-.302.6-.533.663l-.47.126c-2.538.678-6.014 1.606-6.014 5.99v1.897a1.46 1.46 0 001.46 1.457h7.378a.879.879 0 100-1.757h-7.08v-1.596c0-2.456 1.34-3.292 3.608-3.982l4.117 2.415c.516.332.976.498 1.436.498.46 0 .92-.166 1.436-.498l4.12-2.414c2.267.69 3.606 1.526 3.606 3.98v1.597h-7.024a.879.879 0 100 1.757h7.325c.804 0 1.457-.653 1.457-1.457v-1.896c0-4.385-3.476-5.313-6.015-5.991a97.782 97.782 0 01-.468-.126c-.231-.063-.402-.361-.531-.662a10.39 10.39 0 002.228-2.051l2.603 1.525c.516.332.976.498 1.436.498.46 0 .92-.166 1.435-.497l4.123-2.414c2.265.69 3.604 1.526 3.604 3.98v1.596h-6.43a.879.879 0 000 1.758h6.727a1.46 1.46 0 001.46-1.457v-1.897c0-4.384-3.476-5.313-6.015-5.99zm1.407-7.593c0 2.293-2.251 5.14-4.817 6.092-1.105.408-1.887.408-2.99 0a6.396 6.396 0 01-.61-.266l.003-.09v-2.199c0-2.453-.711-4.568-2.06-6.166.074-.072.143-.142.208-.209.453-.462.535-.545 1.03-.417.362.092.67.174.937.245.923.245 1.431.38 1.986.38.558 0 1.067-.135 1.992-.38.266-.071.574-.153.935-.246.493-.127.574-.044 1.028.419.452.461 1.1 1.118 2.358 1.397v1.44zm-6.313-9.427c2.809.054 5.81 2.003 6.256 6.142-.46-.186-.74-.47-1.046-.783-.526-.536-1.247-1.27-2.72-.89-.367.094-.679.177-.95.249-.807.214-1.212.322-1.54.322-.325 0-.73-.108-1.534-.322a110.35 110.35 0 00-.95-.249c-1.479-.381-2.199.354-2.724.89a9.782 9.782 0 01-.23.227 7.816 7.816 0 00-.65-.442c.788-3.483 3.565-5.096 6.088-5.143zm-10.169 5.738c2.807.053 5.807 2.002 6.253 6.142-.46-.186-.74-.471-1.046-.784-.425-.433-.976-.995-1.95-.995a3.09 3.09 0 00-.771.105c-.367.094-.68.177-.95.25-.806.213-1.21.32-1.536.32-.33 0-.735-.107-1.544-.323-.27-.071-.579-.153-.94-.246-1.479-.382-2.199.353-2.725.89-.305.312-.584.597-1.044.782.446-4.14 3.446-6.088 6.253-6.141zm-10.172-5.738c2.523.048 5.3 1.661 6.09 5.145-.224.136-.44.284-.65.442a7.166 7.166 0 01-.232-.23c-.526-.535-1.247-1.269-2.723-.888-.362.094-.672.176-.942.248-.808.215-1.214.322-1.543.322-.327 0-.728-.106-1.528-.319a82.188 82.188 0 00-.957-.25c-1.478-.382-2.198.353-2.724.89-.305.311-.584.596-1.044.782.446-4.14 3.446-6.088 6.253-6.142zm-6.31 9.427v-1.438c1.259-.278 1.904-.937 2.357-1.4.453-.462.535-.545 1.03-.417.365.093.675.176.943.247.918.244 1.423.378 1.98.378.559 0 1.069-.136 1.995-.382.265-.07.57-.151.929-.244.495-.127.576-.044 1.03.418.065.067.135.137.21.21-1.349 1.598-2.06 3.713-2.06 6.165v2.2l.003.088a6.299 6.299 0 01-.611.267c-1.105.408-1.887.408-2.99 0a6.511 6.511 0 01-.94-.44c-2.151-1.213-3.876-3.645-3.876-5.652zm6.842 10.51a.69.69 0 00-.032.02c-.471.304-.527.304-.995 0a.806.806 0 00-.034-.02l-2.803-1.643c.478-.324.779-.802.978-1.224.082.034.165.066.249.097 1.495.553 2.715.553 4.21 0 .108-.04.215-.082.322-.128a8.3 8.3 0 00.625 1.419l-2.52 1.479zm10.17 5.737a.815.815 0 00-.035.02c-.468.305-.524.305-.993 0a.689.689 0 00-.034-.02l-2.803-1.643c.478-.325.78-.803.98-1.225.082.034.166.067.25.098.747.277 1.426.415 2.105.415s1.358-.138 2.106-.415c.084-.03.166-.064.249-.098.198.422.5.9.978 1.225l-2.804 1.643zm5.78-10.51c0 2.293-2.25 5.14-4.814 6.092-1.104.408-1.887.408-2.991 0-2.565-.95-4.815-3.798-4.815-6.092v-1.44c1.257-.279 1.905-.935 2.357-1.397.453-.462.535-.546 1.03-.418.357.092.662.173.927.243.926.247 1.437.383 1.996.383.555 0 1.063-.136 1.986-.38.267-.072.575-.153.938-.246.492-.127.574-.044 1.028.418.452.462 1.1 1.119 2.358 1.397v1.44zm4.392 4.772a.864.864 0 00-.035.022c-.468.304-.524.304-.993 0a.742.742 0 00-.034-.021l-2.52-1.478c.257-.465.468-.941.625-1.42.106.046.212.089.319.128.747.277 1.426.415 2.105.415s1.358-.138 2.106-.415c.084-.03.167-.064.25-.098.2.422.502.901.981 1.226l-2.804 1.641z" fill="#fff"/></svg>