<svg width="60" height="60" fill="none" xmlns="http://www.w3.org/2000/svg"><g clip-path="url(#clip0)" fill="#000"><path d="M53.288 18.328l1.227-1.427 1.196 1.028a.885.885 0 001.247-.095l1.9-2.209a.885.885 0 00-.094-1.248L52.23 8.761a.88.88 0 00-1.247.094l-1.9 2.21a.885.885 0 00.094 1.247l1.196 1.028-1.32 1.536a23.483 23.483 0 00-9.088-3.428V8.775h3.047a2.582 2.582 0 002.58-2.58V4.138a2.582 2.582 0 00-2.58-2.579H29.72a2.582 2.582 0 00-2.58 2.58v2.058a2.582 2.582 0 002.58 2.579h3.047v2.673a23.487 23.487 0 00-9.246 3.532l-1.41-1.64 1.196-1.028a.885.885 0 00.094-1.248l-1.9-2.21a.885.885 0 00-1.247-.093l-6.533 5.616a.886.886 0 00-.094 1.248l1.9 2.21a.883.883 0 001.247.093l1.195-1.027 1.344 1.562a23.79 23.79 0 00-3.082 3.985.881.881 0 00-.091-.004h-5.588a.885.885 0 000 1.769h4.693a23.49 23.49 0 00-1.215 2.873H5.09a.885.885 0 000 1.77h8.402a23.49 23.49 0 00-.66 3.786H.886a.885.885 0 100 1.77h11.853a23.727 23.727 0 00.239 3.786H4.265a.885.885 0 000 1.77H13.3c.22.981.5 1.94.838 2.872H9.727a.885.885 0 000 1.77h5.136c3.731 8.153 11.966 13.832 21.503 13.832a23.47 23.47 0 0013.778-4.43.885.885 0 00-1.033-1.436 21.71 21.71 0 01-12.745 4.097c-12.056 0-21.864-9.809-21.864-21.864 0-12.056 9.808-21.865 21.864-21.865a21.788 21.788 0 0115.07 6.038l.026.024c4.168 3.984 6.768 9.595 6.768 15.803a21.719 21.719 0 01-6.417 15.473.885.885 0 101.25 1.253A23.477 23.477 0 0060 34.808c0-6.404-2.561-12.22-6.712-16.48zm-1.54-7.649l5.191 4.463-.746.868-5.191-4.463.746-.868zm-.033 3.814l1.458 1.254-1.168 1.358c-.48-.424-.976-.83-1.49-1.216l1.2-1.396zM32.454 7.005V3.328h1.428v3.677h-1.428zm3.198-3.677h1.429v3.677h-1.43V3.328zm3.198 3.677V3.328h1.429v3.677H38.85zm4.972-2.868v2.059a.81.81 0 01-.81.81h-.963V3.327h.964a.81.81 0 01.81.81zM28.91 6.196V4.137a.81.81 0 01.81-.81h.964v3.678h-.964a.81.81 0 01-.81-.81zM16.291 16.01l-.746-.868 5.191-4.463.747.868-1.196 1.028-2.8 2.407-1.196 1.028zm3.047-.286l1.431-1.23 1.299 1.51a23.76 23.76 0 00-1.482 1.226l-1.275-1.483.027-.023zm15.198-4.48v-2.47h3.66v2.471a23.835 23.835 0 00-3.66 0z"/><path d="M28.956 18.69a.885.885 0 00-1.194-.375 18.632 18.632 0 00-9.84 14.09c-1.326 10.17 5.87 19.523 16.04 20.848.813.106 1.619.157 2.417.157 9.195 0 17.212-6.84 18.432-16.198a18.479 18.479 0 00-3.703-13.747 18.48 18.48 0 00-12.339-7.102 18.496 18.496 0 00-7.125.45.885.885 0 00.45 1.71 16.67 16.67 0 013.387-.525v2.324a.885.885 0 101.77 0V18c.43.023.86.062 1.29.118a16.71 16.71 0 019.115 4.203l-1.602 1.602a.885.885 0 101.251 1.25l1.598-1.597c.278.311.546.634.803.968a16.708 16.708 0 013.473 9.4h-2.195a.885.885 0 100 1.77h2.19c-.024.422-.063.845-.118 1.269a16.736 16.736 0 01-4.157 9.05l-1.516-1.516a.885.885 0 00-1.251 1.251l1.517 1.518a16.838 16.838 0 01-10.288 4.324v-2.163a.885.885 0 00-1.77 0v2.174a16.735 16.735 0 01-10.37-4.207l1.568-1.568a.885.885 0 10-1.252-1.25l-1.575 1.575a16.84 16.84 0 01-4.397-10.347h2.294a.885.885 0 100-1.769h-2.307a16.841 16.841 0 014.258-10.452l1.65 1.649a.882.882 0 001.25 0 .885.885 0 000-1.251l-1.653-1.654a16.836 16.836 0 013.525-2.464c.433-.226.6-.76.374-1.193z"/><path d="M36.366 26.693a.885.885 0 00-.885.884v5.256a2.168 2.168 0 00-1.281 1.975 2.17 2.17 0 002.166 2.167c.328 0 .637-.075.916-.206l5.902 5.903a.882.882 0 001.252 0 .885.885 0 000-1.252l-5.994-5.994a2.157 2.157 0 00-1.19-2.593v-5.255a.885.885 0 00-.886-.885zm-.397 8.115a.398.398 0 11.795.001.398.398 0 01-.795 0z"/></g><defs><clipPath id="clip0"><path fill="#fff" d="M0 0h60v60H0z"/></clipPath></defs></svg>